<?xml version="1.0" encoding="UTF-8" standalone="no"?>
<svg width="417px" height="151px" viewBox="0 0 417 151" version="1.1" xmlns="http://www.w3.org/2000/svg" xmlns:xlink="http://www.w3.org/1999/xlink">
    <!-- Generator: Sketch 40.1 (33804) - http://www.bohemiancoding.com/sketch -->
    <title>Push-subhero</title>
    <desc>Created with Sketch.</desc>
    <defs></defs>
    <g id="starters" stroke="none" stroke-width="1" fill="none" fill-rule="evenodd">
        <g id="Push-subhero">
            <rect id="bg" fill="#C0E6FF" x="0" y="0" width="417" height="151"></rect>
            <g id="phone" transform="translate(138.000000, 18.000000)">
                <path d="M0.5,133.5 L0.5,17.2184466 C0.5,7.98429122 7.92599996,0.5 17.0882352,0.5 L124.911764,0.5 C134.073999,0.5 141.5,7.98429122 141.5,17.2184466 L141.5,133.5" stroke="#264A60" fill="#FFFFFF"></path>
                <path d="M0.5,30.5 L140.5,30.5" id="Line" stroke="#264A60" stroke-linecap="square"></path>
                <path d="M86.123182,17.7864078 L58.3868182,17.7864078 C57.6212945,17.7864078 57,17.1622524 57,16.3932039 C57,15.6241553 57.6212945,15 58.3868182,15 L86.123182,15 C86.8887057,15 87.5100002,15.6241553 87.5100002,16.3932039 C87.5100002,17.1622524 86.8887057,17.7864078 86.123182,17.7864078 Z" id="speaker" fill="#264A60"></path>
            </g>
            <g id="push" transform="translate(181.000000, 71.000000)">
                <polygon id="Shape" fill="#AAF3E8" points="4 52 4 46.6 4 9 59 9 59 52 14.6 52"></polygon>
                <polygon id="Shape" fill="#00B4A0" points="55 13 0 13 0 50.5 0 55.2 0 66 7.8 56 55 56"></polygon>
                <rect id="Rectangle-path" fill="#FFFFFF" x="11" y="40" width="33" height="3"></rect>
                <rect id="Rectangle-path" fill="#FFFFFF" x="11" y="32" width="33" height="3"></rect>
                <rect id="Rectangle-path" fill="#FFFFFF" x="11" y="24" width="33" height="3"></rect>
                <circle id="Oval" fill="#FFFFFF" cx="53.3" cy="11.3" r="10.5"></circle>
                <circle id="Oval" fill="#5AAAFA" cx="53.3" cy="11.3" r="8.4"></circle>
            </g>
        </g>
    </g>
</svg>